<svg xmlns="http://www.w3.org/2000/svg" aria-hidden="true" style="position:absolute;width:0;height:0;overflow:hidden">

  <symbol id="icon-account_circle" viewBox="0 0 32 32">
    <path d="M7.432 23.413c1.395-0.967 2.778-1.709 4.151-2.226s2.846-0.775 4.421-0.775c1.575 0 3.055 0.26 4.442 0.781s2.771 1.261 4.156 2.22c0.967-1.205 1.653-2.407 2.056-3.605s0.605-2.467 0.605-3.807c0-3.197-1.077-5.873-3.233-8.029s-4.831-3.233-8.028-3.233c-3.196 0-5.873 1.078-8.029 3.233s-3.234 4.832-3.234 8.029c0 1.34 0.206 2.608 0.618 3.805s1.104 2.399 2.076 3.608zM15.994 17.056c-1.301 0-2.395-0.445-3.28-1.335s-1.328-1.984-1.328-3.282 0.445-2.391 1.334-3.28c0.89-0.888 1.985-1.333 3.287-1.333s2.395 0.446 3.28 1.339c0.885 0.892 1.328 1.988 1.328 3.286s-0.445 2.39-1.334 3.276c-0.889 0.886-1.985 1.328-3.287 1.328zM16.011 29.533c-1.856 0-3.607-0.355-5.252-1.064s-3.084-1.68-4.315-2.911c-1.232-1.231-2.202-2.667-2.912-4.308s-1.064-3.393-1.064-5.259c0-1.859 0.355-3.608 1.066-5.245s1.681-3.071 2.911-4.301c1.23-1.23 2.665-2.201 4.306-2.915s3.394-1.070 5.26-1.070c1.859 0 3.608 0.357 5.245 1.070s3.071 1.685 4.301 2.915c1.23 1.23 2.201 2.664 2.915 4.303s1.070 3.386 1.070 5.242c0 1.856-0.357 3.607-1.070 5.253s-1.685 3.084-2.915 4.314c-1.23 1.23-2.664 2.2-4.303 2.911s-3.386 1.066-5.242 1.066zM16 27.262c1.206 0 2.379-0.173 3.52-0.517s2.277-0.954 3.41-1.827c-1.139-0.795-2.281-1.396-3.427-1.805s-2.314-0.613-3.503-0.613-2.356 0.205-3.499 0.613c-1.143 0.409-2.284 1.011-3.423 1.805 1.133 0.873 2.269 1.482 3.406 1.827s2.309 0.517 3.516 0.517zM16 14.96c0.739 0 1.343-0.233 1.814-0.701s0.705-1.072 0.705-1.814-0.235-1.348-0.705-1.818c-0.47-0.47-1.075-0.705-1.814-0.705s-1.343 0.235-1.814 0.705c-0.47 0.47-0.705 1.076-0.705 1.818s0.235 1.347 0.705 1.814c0.47 0.467 1.075 0.701 1.814 0.701z"/>
  </symbol>

  <symbol id="icon-book_2" viewBox="0 0 32 32">
    <path d="M7.349 21.27c0.316-0.202 0.659-0.356 1.030-0.461s0.768-0.158 1.192-0.158h1.112v-15.976h-1.112c-0.624 0-1.151 0.216-1.579 0.647s-0.643 0.959-0.643 1.583v14.365zM12.898 20.651h11.761v-15.976h-11.761v15.976zM9.571 29.533c-1.228 0-2.275-0.432-3.14-1.297s-1.297-1.911-1.297-3.14v-18.191c0-1.23 0.432-2.279 1.297-3.145s1.911-1.3 3.14-1.3h15.024c0.632 0 1.17 0.222 1.614 0.665s0.665 0.981 0.665 1.614v17.246c0 0.217-0.056 0.414-0.167 0.591s-0.253 0.301-0.427 0.373c-0.406 0.168-0.725 0.442-0.956 0.822s-0.347 0.818-0.347 1.315 0.115 0.934 0.345 1.311c0.23 0.377 0.548 0.648 0.954 0.812 0.192 0.084 0.34 0.229 0.443 0.437s0.155 0.46 0.155 0.756v0.037c0 0.303-0.107 0.56-0.322 0.774s-0.478 0.32-0.789 0.32h-16.191zM9.556 27.318h13.8c-0.187-0.316-0.333-0.665-0.437-1.047s-0.156-0.773-0.156-1.174c0-0.424 0.053-0.821 0.158-1.192s0.262-0.717 0.469-1.039h-13.831c-0.61 0-1.131 0.216-1.562 0.647s-0.647 0.959-0.647 1.583c0 0.619 0.216 1.144 0.647 1.575s0.951 0.647 1.56 0.647z"/>
  </symbol>

  <symbol id="icon-conversion_path" viewBox="0 0 32 32">
    <path d="M25.533 28.183c-0.97 0-1.807-0.288-2.511-0.864s-1.148-1.267-1.331-2.071h-6.925c-1.484 0-2.713-0.487-3.687-1.462s-1.461-2.205-1.461-3.69c0-1.48 0.487-2.707 1.461-3.682s2.203-1.462 3.687-1.462h2.567c0.894 0 1.626-0.286 2.196-0.857s0.856-1.303 0.856-2.197-0.285-1.626-0.856-2.196c-0.571-0.57-1.303-0.855-2.196-0.855h-7.017c-0.211 0.804-0.663 1.495-1.356 2.071s-1.525 0.864-2.494 0.864c-1.114 0-2.056-0.385-2.827-1.156s-1.156-1.713-1.156-2.827c0-1.114 0.385-2.057 1.156-2.827s1.713-1.156 2.827-1.156c0.97 0 1.801 0.288 2.494 0.864s1.145 1.267 1.356 2.071h7.017c1.483 0 2.711 0.487 3.686 1.462s1.462 2.203 1.462 3.686-0.487 2.711-1.462 3.686c-0.975 0.974-2.203 1.462-3.686 1.462h-2.567c-0.895 0-1.628 0.285-2.197 0.855s-0.855 1.301-0.855 2.193c0 0.898 0.285 1.632 0.855 2.201s1.302 0.855 2.197 0.855h6.925c0.205-0.805 0.655-1.495 1.348-2.071s1.525-0.864 2.494-0.864c1.114 0 2.056 0.385 2.827 1.156s1.156 1.713 1.156 2.827c0 1.114-0.385 2.057-1.156 2.827s-1.713 1.156-2.827 1.156zM6.466 9.6c0.511 0 0.939-0.172 1.283-0.517s0.517-0.772 0.517-1.283c0-0.511-0.172-0.939-0.517-1.283s-0.772-0.517-1.283-0.517c-0.511 0-0.939 0.172-1.283 0.517s-0.517 0.772-0.517 1.283c0 0.511 0.172 0.939 0.517 1.283s0.772 0.517 1.283 0.517z"/>
  </symbol>

  <symbol id="icon-today" viewBox="0 0 32 32">
    <path d="M11.808 21.715c-0.907 0-1.672-0.313-2.294-0.939s-0.933-1.393-0.933-2.3c0-0.907 0.313-1.672 0.94-2.294s1.393-0.933 2.3-0.933c0.907 0 1.671 0.313 2.294 0.94s0.933 1.393 0.933 2.3c0 0.907-0.313 1.671-0.939 2.294s-1.393 0.933-2.3 0.933zM6.072 29.533c-0.613 0-1.145-0.225-1.595-0.676s-0.676-0.982-0.676-1.595v-20.523c0-0.616 0.225-1.149 0.676-1.601s0.982-0.678 1.595-0.678h2.095v-0.862c0-0.319 0.111-0.588 0.332-0.808s0.491-0.33 0.808-0.33c0.326 0 0.602 0.11 0.826 0.33s0.336 0.489 0.336 0.808v0.862h11.062v-0.862c0-0.319 0.111-0.588 0.332-0.808s0.491-0.33 0.808-0.33c0.327 0 0.602 0.11 0.826 0.33s0.336 0.489 0.336 0.808v0.862h2.095c0.616 0 1.149 0.226 1.601 0.678s0.678 0.985 0.678 1.601v20.523c0 0.613-0.226 1.145-0.678 1.595s-0.985 0.676-1.601 0.676h-19.857zM6.072 27.262h19.857v-14.262h-19.857v14.262zM6.072 11h19.857v-4.262h-19.857v4.262z"/>
  </symbol>

  <symbol id="icon-plus" width="21" height="21" viewBox="0 0 21 21">
    <path d="M9.43875 11.0412V14.4055C9.43875 14.6282 9.51358 14.8148 9.66325 14.9655C9.81308 15.116 10.0017 15.1912 10.229 15.1912C10.4562 15.1912 10.6432 15.1168 10.79 14.968C10.9368 14.819 11.0103 14.631 11.0103 14.404V11.0412H14.3995C14.6222 11.0412 14.8088 10.9664 14.9595 10.8167C15.11 10.6669 15.1852 10.4783 15.1852 10.251C15.1852 10.0238 15.1108 9.83683 14.962 9.69C14.813 9.54317 14.625 9.46975 14.398 9.46975H11.0103V5.9055C11.0103 5.68283 10.9354 5.49617 10.7858 5.3455C10.6359 5.195 10.4473 5.11975 10.22 5.11975C9.99283 5.11975 9.80583 5.19417 9.659 5.343C9.51217 5.492 9.43875 5.68 9.43875 5.907V9.46975H5.8995C5.67683 9.46975 5.49017 9.54458 5.3395 9.69425C5.189 9.84408 5.11375 10.0327 5.11375 10.26C5.11375 10.4872 5.18817 10.6742 5.337 10.821C5.486 10.9678 5.674 11.0412 5.901 11.0412H9.43875ZM10.157 20.305C8.75367 20.305 7.43667 20.0393 6.206 19.508C4.97533 18.9767 3.899 18.25 2.977 17.328C2.055 16.406 1.32833 15.3293 0.797 14.098C0.265667 12.8667 0 11.5486 0 10.1437C0 8.73908 0.265667 7.42075 0.797 6.18875C1.32833 4.95692 2.05467 3.88408 2.976 2.97025C3.89733 2.05625 4.97383 1.33275 6.2055 0.79975C7.43717 0.266583 8.75558 0 10.1608 0C11.5658 0 12.8845 0.266416 14.117 0.799249C15.3493 1.33208 16.4223 2.05517 17.3358 2.9685C18.2494 3.88183 18.9727 4.95583 19.5055 6.1905C20.0385 7.42517 20.305 8.74458 20.305 10.1487C20.305 11.5527 20.0384 12.87 19.5052 14.1005C18.9722 15.3312 18.2487 16.4058 17.3347 17.3242C16.4209 18.2426 15.347 18.969 14.113 19.5035C12.879 20.0378 11.5603 20.305 10.157 20.305ZM10.162 18.6017C12.5043 18.6017 14.4956 17.7788 16.1357 16.133C17.7757 14.487 18.5957 12.4903 18.5957 10.143C18.5957 7.80067 17.7773 5.80942 16.1402 4.16925C14.5034 2.52925 12.5055 1.70925 10.1465 1.70925C7.8105 1.70925 5.81925 2.52775 4.17275 4.16475C2.52642 5.80158 1.70325 7.7995 1.70325 10.1585C1.70325 12.4945 2.52617 14.4857 4.172 16.1322C5.818 17.7786 7.81467 18.6017 10.162 18.6017z" />
  </symbol>

  <symbol id="icon-edit" width="21" height="21" viewBox="0 0 21 21">
    <path d="M1.70325 20.3925C1.24325 20.3925 0.844417 20.2236 0.50675 19.8858C0.168917 19.5481 0 19.1493 0 18.6893V3.79675C0 3.33508 0.168917 2.93483 0.50675 2.596C0.844417 2.257 1.24325 2.0875 1.70325 2.0875H9.77125C10.0571 2.0875 10.2715 2.17608 10.4145 2.35325C10.5573 2.53025 10.6287 2.72492 10.6287 2.93725C10.6287 3.14975 10.5568 3.34617 10.4128 3.5265C10.2688 3.70667 10.0569 3.79675 9.77725 3.79675H1.70325V18.6893H16.5957V10.5463C16.5957 10.2664 16.6842 10.0545 16.8612 9.9105C17.0382 9.76667 17.233 9.69475 17.4455 9.69475C17.658 9.69475 17.8543 9.76667 18.0345 9.9105C18.2148 10.0545 18.305 10.2664 18.305 10.5463V18.6893C18.305 19.1493 18.1355 19.5481 17.7965 19.8858C17.4577 20.2236 17.0574 20.3925 16.5957 20.3925H1.70325ZM6.07775 13.463V10.6718C6.07775 10.4374 6.12442 10.2141 6.21775 10.0017C6.31108 9.78942 6.43633 9.60458 6.5935 9.44725L15.562 0.484749C15.732 0.314916 15.9207 0.191666 16.128 0.114999C16.3353 0.0383327 16.5447 0 16.756 0C16.9628 0 17.1736 0.0424994 17.3883 0.127499C17.6027 0.212499 17.798 0.339916 17.974 0.509749L19.8577 2.4125C20.0251 2.58583 20.1528 2.77517 20.241 2.9805C20.3293 3.186 20.3735 3.39508 20.3735 3.60775C20.3735 3.82158 20.3303 4.03808 20.244 4.25725C20.1575 4.47625 20.0287 4.67133 19.8577 4.8425L10.9453 13.805C10.7879 13.9622 10.6031 14.0864 10.3908 14.1778C10.1784 14.2691 9.95508 14.3148 9.72075 14.3148H6.9295C6.689 14.3148 6.48692 14.2329 6.32325 14.0693C6.15958 13.9056 6.07775 13.7035 6.07775 13.463ZM7.69725 12.6953H9.7565L16.0397 6.412L15.0027 5.392L13.9615 4.37775L7.69725 10.611V12.6953z" />
  </symbol> 

  <symbol id="icon-delete" width="24" height="24" viewBox="0 0 24 24">
    <path d="M6.47711 21.1508C6.00295 21.1508 5.59953 20.985 5.26686 20.6535C4.9342 20.322 4.76786 19.92 4.76786 19.4475V5.29903H4.49286C4.25236 5.29903 4.05028 5.21678 3.88661 5.05228C3.72295 4.88778 3.64111 4.6847 3.64111 4.44303C3.64111 4.20136 3.72295 3.99978 3.88661 3.83828C4.05028 3.67661 4.25236 3.59578 4.49286 3.59578H8.59811C8.59811 3.35128 8.68003 3.1472 8.84386 2.98353C9.00753 2.82003 9.20953 2.73828 9.44986 2.73828H14.5439C14.7842 2.73828 14.9863 2.8212 15.1501 2.98703C15.3138 3.15303 15.3956 3.35595 15.3956 3.59578H19.5069C19.7474 3.59578 19.9494 3.67803 20.1131 3.84253C20.2768 4.00703 20.3586 4.21012 20.3586 4.45178C20.3586 4.69345 20.2768 4.89511 20.1131 5.05678C19.9494 5.21828 19.7474 5.29903 19.5069 5.29903H19.2319V19.4475C19.2319 19.92 19.0655 20.322 18.7329 20.6535C18.4002 20.985 17.9968 21.1508 17.5226 21.1508H6.47711ZM17.5226 5.29903H6.47711V19.4475H17.5226V5.29903ZM11.9999 13.579L14.3521 15.9503C14.5268 16.1288 14.7387 16.2212 14.9879 16.2275C15.2372 16.2339 15.4512 16.1456 15.6299 15.9628C15.8044 15.7748 15.8916 15.5615 15.8916 15.323C15.8916 15.0847 15.8044 14.8762 15.6299 14.6975L13.2776 12.3013L15.6299 9.89903C15.8044 9.72436 15.8916 9.51661 15.8916 9.27578C15.8916 9.03478 15.8044 8.82495 15.6299 8.64628C15.4512 8.47178 15.2372 8.38453 14.9879 8.38453C14.7387 8.38453 14.5268 8.47178 14.3521 8.64628L11.9999 11.0235L9.67261 8.64628C9.49795 8.47178 9.28703 8.38453 9.03986 8.38453C8.79253 8.38453 8.57953 8.47178 8.40086 8.64628C8.22636 8.82495 8.13911 9.03895 8.13911 9.28828C8.13911 9.53745 8.22636 9.74936 8.40086 9.92403L10.7471 12.3013L8.40086 14.6785C8.22236 14.8532 8.13411 15.0641 8.13611 15.3113C8.13811 15.5586 8.22636 15.7716 8.40086 15.9503C8.58053 16.1248 8.79378 16.212 9.04061 16.212C9.28728 16.212 9.49995 16.1248 9.67861 15.9503L11.9999 13.579z" />
  </symbol>

</svg>
