<svg xmlns="http://www.w3.org/2000/svg" aria-hidden="true" style="position:absolute;width:0;height:0;overflow:hidden">
<defs>
<symbol id="icon-logo" viewBox="0 0 32 32">
<path fill="#33adc1" style="fill: var(--color1, #33adc1)" d="M31.596 15.798c0 8.725-7.073 15.798-15.798 15.798-0.328 0-0.653-0.010-0.975-0.030-1.352-0.082-2.658-0.335-3.897-0.736-0.471-0.152-0.933-0.327-1.384-0.521-5.614-2.423-9.543-8.008-9.543-14.511 0-8.725 7.073-15.798 15.798-15.798s15.798 7.073 15.798 15.798z"></path>
<path fill="#eae0d3" style="fill: var(--color2, #eae0d3)" d="M14.823 31.566c-1.866-0.113-3.645-0.551-5.28-1.257 6.118-8.248-4.473-16.104-4.473-16.104l5.34-1.318c0-0 11.428 6.971 4.414 18.679z"></path>
<path fill="#d6c8b0" style="fill: var(--color3, #d6c8b0)" d="M10.927 30.831c-0.471-0.152-0.933-0.327-1.384-0.521 6.118-8.248-4.473-16.104-4.473-16.104l1.543-0.381c0.374 0.28 0.898 0.644 1.432 1.144 2.786 2.602 6.827 8.139 2.881 15.862z"></path>
<path fill="#eae0d3" style="fill: var(--color2, #eae0d3)" d="M14.222 8.792c0 3.411-2.765 6.176-6.176 6.176s-6.176-2.765-6.176-6.176c0-0.509 0.061-1.004 0.178-1.477s0.287-0.925 0.505-1.348l-2.552-2.552 4.182 0.559-2.145-2.66 4.905 1.401-0.535-2.714c0 0 4.267 2.36 6.294 4.734 0.154 0.176 0.297 0.361 0.43 0.554 0.687 0.996 1.091 2.203 1.091 3.505z"></path>
<path fill="#2f373b" style="fill: var(--color4, #2f373b)" d="M11.365 7.531c0 0.835-0.677 1.513-1.512 1.513s-1.513-0.677-1.513-1.513c0-0.835 0.677-1.513 1.513-1.513s1.512 0.677 1.512 1.513z"></path>
<path fill="#ff648d" style="fill: var(--color5, #ff648d)" d="M25.542 8.53c-0.621 0.324-1.275 0.251-1.801 0.077-0.614-0.203-1.052-0.542-1.052-0.542s-2.212-2.171-0.51-3.116c0.514-0.285 0.93-0.284 1.26-0.142h0.001c0.764 0.328 1.071 1.402 1.071 1.402s0.616-1.597 1.978-1.113c1.362 0.483 0.398 2.731-0.947 3.435z"></path>
<path fill="#ea2f69" style="fill: var(--color6, #ea2f69)" d="M23.741 8.607c-0.614-0.203-1.052-0.542-1.052-0.542s-2.212-2.171-0.51-3.116c0.514-0.285 0.93-0.284 1.26-0.142-0.753-0.042-0.777 2.733 0.302 3.801z"></path>
<path fill="#fff" style="fill: var(--color7, #fff)" d="M10.934 7.047c0 0.261-0.212 0.473-0.473 0.473s-0.473-0.212-0.473-0.473c0-0.261 0.212-0.472 0.473-0.472s0.473 0.212 0.473 0.472z"></path>
<path fill="#ff648d" style="fill: var(--color5, #ff648d)" d="M23.242 9.26c0 2.304-6.271 9.3-2.175 12.199 1.024 0.725 2.154 0.961 3.274 0.908 1.119 0.053 2.25-0.183 3.274-0.908 4.096-2.899-2.175-9.895-2.175-12.199z"></path>
<path fill="#ea2f69" style="fill: var(--color6, #ea2f69)" d="M24.172 22.372c-1.065 0.023-2.132-0.225-3.105-0.913-4.097-2.899 2.175-9.895 2.175-12.199h0.672c0 2.304-2.437 9.3-0.845 12.199 0.346 0.631 0.724 0.892 1.103 0.913z"></path>
<path fill="#ea2f69" style="fill: var(--color6, #ea2f69)" d="M24.173 22.372c0.056-0.001 0.112-0.003 0.169-0.005-0.056 0.007-0.112 0.009-0.169 0.005z"></path>
<path fill="#ea2f69" style="fill: var(--color6, #ea2f69)" d="M24.51 22.372c-0.056 0.004-0.112 0.002-0.168-0.005 0.056 0.002 0.112 0.004 0.168 0.005z"></path>
<path fill="#ffd62c" style="fill: var(--color8, #ffd62c)" d="M28.464 8.855l-15.63 2.584c0 0-0.546-0.827-0.744-1.924-0.177-0.978-0.077-2.171 0.933-3.181l15.441 2.521z"></path>
<path fill="#ffb92e" style="fill: var(--color9, #ffb92e)" d="M28.464 8.856l-15.63 2.584c0 0-0.546-0.827-0.744-1.924l16.374-0.66z"></path>
<path fill="#d6c8b0" style="fill: var(--color3, #d6c8b0)" d="M8.045 14.969c-3.411 0-6.176-2.765-6.176-6.176 0-0.509 0.061-1.004 0.178-1.477s0.287-0.925 0.505-1.348l-2.552-2.552 4.182 0.559-2.145-2.66 5 2.815c0 0-3.088 1.135-3.088 4.727s4.097 6.113 4.097 6.113z"></path>
</symbol>
<symbol id="icon-stork" viewBox="0 0 150 32">
<path d="M137.614 31.735c-1.967 0-3.733-0.485-5.296-1.456-1.563-0.997-2.803-2.331-3.719-4.002-0.89-1.698-1.334-3.612-1.334-5.741s0.485-4.043 1.455-5.741c0.997-1.698 2.331-3.032 4.002-4.002 1.698-0.997 3.598-1.496 5.7-1.496s3.989 0.499 5.66 1.496c1.671 0.97 2.992 2.304 3.962 4.002 0.997 1.698 1.496 3.612 1.496 5.741h-1.577c0 2.129-0.458 4.043-1.375 5.741-0.889 1.671-2.116 3.005-3.679 4.002-1.563 0.97-3.328 1.456-5.296 1.456zM138.422 28.097c1.375 0 2.601-0.323 3.679-0.97 1.078-0.674 1.927-1.577 2.547-2.709 0.62-1.159 0.93-2.453 0.93-3.881 0-1.455-0.31-2.749-0.93-3.881-0.62-1.159-1.469-2.062-2.547-2.709-1.078-0.674-2.304-1.011-3.679-1.011-1.347 0-2.574 0.337-3.679 1.011-1.078 0.647-1.941 1.55-2.588 2.709-0.62 1.132-0.93 2.426-0.93 3.881 0 1.428 0.31 2.722 0.93 3.881 0.647 1.132 1.509 2.035 2.588 2.709 1.105 0.647 2.331 0.97 3.679 0.97zM147.478 31.614c-0.593 0-1.091-0.189-1.496-0.566-0.377-0.404-0.566-0.903-0.566-1.496v-6.185l0.768-4.285 3.355 1.455v9.015c0 0.593-0.202 1.092-0.606 1.496-0.377 0.377-0.863 0.566-1.456 0.566z"></path>
<path d="M124.308 31.087c-0.35 0.323-0.849 0.485-1.496 0.485-0.62-0.027-1.105-0.215-1.456-0.566l-9.824-10.552 9.258-10.349c0.35-0.377 0.835-0.593 1.455-0.647 0.647-0.054 1.146 0.081 1.496 0.404 0.404 0.377 0.633 0.809 0.687 1.294 0.054 0.458-0.094 0.876-0.445 1.253l-7.317 7.843 7.762 8.328c0.35 0.35 0.526 0.768 0.526 1.253 0 0.458-0.216 0.876-0.647 1.253zM108.299 31.613c-0.593 0-1.064-0.189-1.415-0.566-0.35-0.404-0.526-0.903-0.526-1.496v-18.031c0-0.62 0.175-1.119 0.526-1.496s0.822-0.566 1.415-0.566c0.62 0 1.119 0.189 1.496 0.566 0.404 0.377 0.607 0.876 0.607 1.496v6.751h5.175v3.8h-5.175v7.479c0 0.593-0.202 1.091-0.607 1.496-0.377 0.377-0.876 0.566-1.496 0.566z"></path>
<path d="M91.233 31.735c-2.237 0-4.231-0.472-5.983-1.415-1.725-0.97-3.086-2.291-4.083-3.962-0.97-1.698-1.456-3.638-1.456-5.821 0-2.21 0.458-4.151 1.375-5.822 0.943-1.698 2.237-3.019 3.881-3.962 1.644-0.97 3.531-1.455 5.66-1.455 2.102 0 3.908 0.472 5.417 1.415 1.509 0.916 2.655 2.197 3.436 3.841 0.809 1.617 1.213 3.49 1.213 5.619 0 0.512-0.175 0.943-0.526 1.294-0.35 0.323-0.795 0.485-1.334 0.485h-16.292v-3.234h16.171l-1.658 1.132c-0.027-1.348-0.297-2.547-0.809-3.598-0.512-1.078-1.24-1.927-2.183-2.547s-2.089-0.93-3.436-0.93c-1.536 0-2.857 0.337-3.962 1.011-1.078 0.674-1.9 1.604-2.466 2.789-0.566 1.159-0.849 2.48-0.849 3.962s0.337 2.803 1.011 3.962c0.674 1.159 1.604 2.075 2.79 2.749s2.547 1.011 4.083 1.011c0.835 0 1.684-0.148 2.547-0.445 0.889-0.323 1.603-0.687 2.143-1.091 0.404-0.297 0.835-0.445 1.294-0.445 0.485-0.027 0.903 0.108 1.253 0.404 0.458 0.404 0.701 0.849 0.728 1.334s-0.189 0.903-0.647 1.253c-0.916 0.728-2.062 1.321-3.437 1.779-1.347 0.458-2.641 0.687-3.881 0.687z"></path>
<path d="M65.001 9.5c0.404 0 0.768 0.108 1.092 0.323s0.579 0.553 0.768 1.011l8.328 18.071c0.242 0.539 0.27 1.024 0.081 1.455-0.189 0.404-0.512 0.714-0.97 0.93-0.593 0.269-1.105 0.337-1.536 0.202s-0.795-0.472-1.092-1.011l-7.6-17.263h2.062l-7.843 17.263c-0.243 0.512-0.607 0.849-1.092 1.011-0.458 0.135-0.97 0.067-1.536-0.202-0.512-0.243-0.876-0.566-1.091-0.97-0.189-0.404-0.148-0.876 0.121-1.415l8.368-18.071c0.404-0.889 1.051-1.334 1.94-1.334z"></path>
<path d="M41.589 31.735c-2.237 0-4.231-0.472-5.983-1.415-1.725-0.97-3.086-2.291-4.083-3.962-0.97-1.698-1.456-3.638-1.456-5.821 0-2.21 0.458-4.151 1.375-5.822 0.943-1.698 2.237-3.019 3.881-3.962 1.644-0.97 3.531-1.455 5.66-1.455 2.102 0 3.908 0.472 5.417 1.415 1.509 0.916 2.655 2.197 3.436 3.841 0.809 1.617 1.213 3.49 1.213 5.619 0 0.512-0.175 0.943-0.526 1.294-0.35 0.323-0.795 0.485-1.334 0.485h-16.292v-3.234h16.171l-1.658 1.132c-0.027-1.348-0.296-2.547-0.809-3.598-0.512-1.078-1.24-1.927-2.183-2.547s-2.089-0.93-3.437-0.93c-1.536 0-2.857 0.337-3.962 1.011-1.078 0.674-1.9 1.604-2.466 2.789-0.566 1.159-0.849 2.48-0.849 3.962s0.337 2.803 1.011 3.962c0.674 1.159 1.603 2.075 2.789 2.749s2.547 1.011 4.083 1.011c0.835 0 1.684-0.148 2.547-0.445 0.889-0.323 1.604-0.687 2.143-1.091 0.404-0.297 0.836-0.445 1.294-0.445 0.485-0.027 0.903 0.108 1.253 0.404 0.458 0.404 0.701 0.849 0.728 1.334s-0.189 0.903-0.647 1.253c-0.916 0.728-2.062 1.321-3.436 1.779-1.348 0.458-2.641 0.687-3.881 0.687z"></path>
<path d="M2.075 31.574c-0.755 0-1.334-0.323-1.738-0.97s-0.445-1.334-0.121-2.062l11.36-27.127c0.404-0.943 1.065-1.415 1.981-1.415 0.97 0 1.631 0.472 1.981 1.415l11.401 27.208c0.296 0.755 0.256 1.442-0.121 2.062-0.35 0.593-0.916 0.889-1.698 0.889-0.404 0-0.795-0.108-1.172-0.323-0.35-0.242-0.606-0.566-0.768-0.97l-10.107-24.904h1.294l-10.349 24.904c-0.189 0.431-0.472 0.754-0.849 0.97-0.35 0.216-0.714 0.323-1.092 0.323z"></path>
</symbol>
</defs>
</svg>
